<svg width="1200" height="860" viewBox="0 0 1200 860" fill="none" xmlns="http://www.w3.org/2000/svg">
  <rect width="1200" height="860" rx="52" fill="url(#paint0_linear)"/>
  <rect x="92" y="106" width="1016" height="648" rx="42" fill="#F8FAFF"/>
  <rect x="132" y="152" width="244" height="556" rx="32" fill="#10183B"/>
  <rect x="412" y="152" width="656" height="168" rx="32" fill="url(#paint1_linear)"/>
  <rect x="412" y="348" width="308" height="160" rx="30" fill="#F3F6FF"/>
  <rect x="760" y="348" width="308" height="160" rx="30" fill="#F3F6FF"/>
  <rect x="412" y="536" width="656" height="172" rx="34" fill="#10183B"/>
  <circle cx="254" cy="230" r="56" fill="url(#paint2_linear)"/>
  <rect x="178" y="318" width="152" height="18" rx="9" fill="#FFFFFF"/>
  <rect x="162" y="360" width="184" height="16" rx="8" fill="#A9B3E7"/>
  <rect x="160" y="428" width="188" height="78" rx="26" fill="#19234F"/>
  <rect x="160" y="530" width="188" height="78" rx="26" fill="#19234F"/>
  <rect x="456" y="192" width="220" height="20" rx="10" fill="#FFFFFF"/>
  <rect x="456" y="228" width="292" height="16" rx="8" fill="#F1E8FF" fill-opacity="0.84"/>
  <rect x="456" y="384" width="162" height="16" rx="8" fill="#18214F"/>
  <rect x="456" y="418" width="208" height="14" rx="7" fill="#8891BF"/>
  <rect x="804" y="384" width="160" height="16" rx="8" fill="#18214F"/>
  <rect x="804" y="418" width="204" height="14" rx="7" fill="#8891BF"/>
  <rect x="456" y="584" width="182" height="18" rx="9" fill="#FFFFFF"/>
  <rect x="456" y="620" width="244" height="14" rx="7" fill="#A8B1E8"/>
  <rect x="456" y="664" width="194" height="34" rx="17" fill="url(#paint3_linear)"/>
  <rect x="792" y="584" width="182" height="18" rx="9" fill="#FFFFFF"/>
  <rect x="792" y="620" width="212" height="14" rx="7" fill="#A8B1E8"/>
  <rect x="792" y="664" width="176" height="34" rx="17" fill="url(#paint4_linear)"/>
  <defs>
    <linearGradient id="paint0_linear" x1="84" y1="66" x2="1114" y2="784" gradientUnits="userSpaceOnUse">
      <stop stop-color="#0F173C"/>
      <stop offset="0.54" stop-color="#26347A"/>
      <stop offset="1" stop-color="#1468E7"/>
    </linearGradient>
    <linearGradient id="paint1_linear" x1="412" y1="152" x2="1068" y2="320" gradientUnits="userSpaceOnUse">
      <stop stop-color="#A54DFF"/>
      <stop offset="1" stop-color="#41D6FF"/>
    </linearGradient>
    <linearGradient id="paint2_linear" x1="198" y1="174" x2="310" y2="286" gradientUnits="userSpaceOnUse">
      <stop stop-color="#BA57FF"/>
      <stop offset="1" stop-color="#4DD6FF"/>
    </linearGradient>
    <linearGradient id="paint3_linear" x1="456" y1="664" x2="650" y2="698" gradientUnits="userSpaceOnUse">
      <stop stop-color="#A34DFF"/>
      <stop offset="1" stop-color="#39D0FF"/>
    </linearGradient>
    <linearGradient id="paint4_linear" x1="792" y1="664" x2="968" y2="698" gradientUnits="userSpaceOnUse">
      <stop stop-color="#F06AB4"/>
      <stop offset="1" stop-color="#45D6FF"/>
    </linearGradient>
  </defs>
</svg>
